<?xml version="1.0" encoding="utf-8"?>
<!-- Generator: Adobe Illustrator 24.0.0, SVG Export Plug-In . SVG Version: 6.00 Build 0)  -->
<svg version="1.1" id="Layer_1" xmlns="http://www.w3.org/2000/svg" xmlns:xlink="http://www.w3.org/1999/xlink" x="0px" y="0px"
	 viewBox="0 0 610 536" style="enable-background:new 0 0 610 536;" xml:space="preserve">
<style type="text/css">
	.st0{fill:none;stroke:#1480FF;stroke-width:7;}
	.st1{fill:none;stroke:#1480FF;stroke-width:5.6708;}
	.st2{fill:none;stroke:#0A968B;stroke-width:1.2098;}
	.st3{fill:none;stroke:#1480FF;stroke-width:0.9139;}
	.st4{fill:none;stroke:#87A57F;stroke-width:0.8047;}
	.st5{fill:none;stroke:#704C7F;stroke-width:1.0323;}
	.st6{fill:none;stroke:#1480FF;stroke-width:4.0685;}
	.st7{fill:none;stroke:#0A968B;stroke-width:3.8227;}
	.st8{fill:none;stroke:#87A57F;stroke-width:0.7774;}
	.st9{fill:none;stroke:#0A968B;stroke-width:2.1384;}
	.st10{fill:none;stroke:#1480FF;stroke-width:0.873;}
	.st11{fill:none;stroke:#1480FF;stroke-width:1.8744;}
	.st12{fill:none;stroke:#704C7F;stroke-width:0.8411;}
	.st13{fill:none;stroke:#0A968B;stroke-width:0.8047;}
	.st14{fill:none;stroke:#1480FF;stroke-width:1.3054;}
	.st15{fill:none;stroke:#1480FF;stroke-width:2.4207;}
	.st16{fill:none;stroke:#1480FF;stroke-width:0.7774;}
	.st17{fill:none;stroke:#0A968B;stroke-width:2.2887;}
	.st18{fill:none;stroke:#1480FF;stroke-width:2.3751;}
	.st19{fill:none;stroke:#1480FF;stroke-width:4.4418;}
	.st20{fill:none;stroke:#0A968B;stroke-width:1.6286;}
	.st21{fill:none;stroke:#1480FF;stroke-width:4.8469;}
	.st22{fill:none;stroke:#0A968B;stroke-width:1.2781;}
	.st23{fill:none;stroke:#1480FF;stroke-width:1.2417;}
	.st24{fill:none;stroke:#0A968B;stroke-width:0.7637;}
	.st25{fill:none;stroke:#87A57F;stroke-width:0.741;}
	.st26{fill:none;stroke:#704C7F;stroke-width:1.1598;}
	.st27{fill:none;stroke:#1480FF;stroke-width:2.7894;}
	.st28{fill:none;stroke:#0A968B;stroke-width:4.8469;}
	.st29{fill:none;stroke:#0A968B;stroke-width:2.9487;}
	.st30{fill:none;stroke:#1480FF;stroke-width:2.0747;}
	.st31{fill:none;stroke:#704C7F;stroke-width:0.8866;}
	.st32{fill:none;stroke:#0A968B;stroke-width:1.4101;}
	.st33{fill:none;stroke:#1480FF;stroke-width:2.5208;}
	.st34{fill:none;stroke:#1480FF;stroke-width:3.4722;}
	.st35{fill:none;stroke:#1480FF;stroke-width:1.0323;}
	.st36{fill:none;stroke:#0A968B;stroke-width:3.4312;}
	.st37{fill:none;stroke:#1480FF;stroke-width:3.3948;}
	.st38{fill:none;stroke:#0A968B;stroke-width:2.1202;}
	.st39{fill:none;stroke:#0A968B;stroke-width:1.0186;}
	.st40{fill:none;stroke:#704C7F;stroke-width:2.2295;}
	.st41{fill:none;stroke:#1480FF;stroke-width:5.5206;}
	.st42{fill:none;stroke:#0A968B;stroke-width:4.2506;}
	.st43{fill:none;stroke:#0A968B;stroke-width:1.7515;}
	.st44{fill:none;stroke:#1480FF;stroke-width:1.269;}
	.st45{fill:none;stroke:#1480FF;stroke-width:1.9973;}
	.st46{fill:none;stroke:#704C7F;stroke-width:1.4465;}
	.st47{fill:none;stroke:#704C7F;stroke-width:0.8548;}
	.st48{fill:none;stroke:#1480FF;stroke-width:1.2918;}
	.st49{fill:none;stroke:#1480FF;stroke-width:2.5299;}
	.st50{fill:none;stroke:#1480FF;stroke-width:1.5785;}
	.st51{fill:none;stroke:#0A968B;stroke-width:1.7652;}
	.st52{fill:none;stroke:#1480FF;stroke-width:0.8548;}
	.st53{fill:none;stroke:#1480FF;stroke-width:3.6361;}
	.st54{fill:none;stroke:#704C7F;stroke-width:0.9276;}
	.st55{fill:none;stroke:#1480FF;stroke-width:0.7273;}
	.st56{fill:none;stroke:#1480FF;stroke-width:1.0232;}
	.st57{fill:none;stroke:#1480FF;stroke-width:0.8502;}
	.st58{fill:none;stroke:#0A968B;stroke-width:0.7364;}
	.st59{fill:none;stroke:#1480FF;stroke-width:0.8047;}
	.st60{fill:none;stroke:#1480FF;stroke-width:1.1461;}
	.st61{fill:none;stroke:#CC1800;stroke-width:1.0642;}
	.st62{fill:none;stroke:#704C7F;stroke-width:0.7683;}
	.st63{fill:none;stroke:#CC1800;stroke-width:1.0733;}
	.st64{fill:none;stroke:#CC1800;stroke-width:0.8001;}
	.st65{fill:none;stroke:#1480FF;stroke-width:1.0778;}
	.st66{fill:none;stroke:#704C7F;stroke-width:1.797;}
	.st67{fill:none;stroke:#1480FF;stroke-width:1.228;}
	.st68{fill:none;stroke:#1480FF;stroke-width:1.6468;}
	.st69{fill:none;stroke:#704C7F;stroke-width:0.8684;}
	.st70{fill:none;stroke:#1480FF;stroke-width:1.0505;}
	.st71{fill:none;stroke:#1480FF;stroke-width:3.0443;}
	.st72{fill:none;stroke:#0A968B;stroke-width:0.7182;}
	.st73{fill:none;stroke:#1480FF;stroke-width:1.0368;}
	.st74{fill:none;stroke:#704C7F;stroke-width:0.8502;}
	.st75{fill:none;stroke:#00AD17;stroke-width:1.6377;}
	.st76{fill:none;stroke:#00AD17;stroke-width:0.7182;}
	.st77{fill:none;stroke:#66620B;stroke-width:1.7697;}
	.st78{fill:none;stroke:#0A968B;stroke-width:2.2386;}
	.st79{fill:none;stroke:#00AD17;stroke-width:2.8303;}
	.st80{fill:none;stroke:#0A968B;stroke-width:0.7228;}
	.st81{fill:none;stroke:#0A968B;stroke-width:1.6923;}
	.st82{fill:none;stroke:#66620B;stroke-width:0.8138;}
	.st83{fill:none;stroke:#00AD17;stroke-width:0.832;}
	.st84{fill:none;stroke:#0A968B;stroke-width:1.2189;}
	.st85{fill:none;stroke:#0A968B;stroke-width:1.5239;}
	.st86{fill:none;stroke:#0A968B;stroke-width:0.9549;}
	.st87{fill:none;stroke:#00AD17;stroke-width:6.1442;}
	.st88{fill:none;stroke:#0A968B;stroke-width:1.8107;}
	.st89{fill:none;stroke:#00AD17;stroke-width:2.3706;}
	.st90{fill:none;stroke:#00AD17;stroke-width:1.1643;}
	.st91{fill:none;stroke:#0A968B;stroke-width:0.7273;}
	.st92{fill:none;stroke:#00AD17;stroke-width:0.7501;}
	.st93{fill:none;stroke:#0A968B;stroke-width:0.9139;}
	.st94{fill:none;stroke:#1480FF;stroke-width:0.7228;}
	.st95{fill:none;stroke:#1480FF;stroke-width:1.7743;}
	.st96{fill:none;stroke:#CC1800;stroke-width:0.8047;}
	.st97{fill:none;stroke:#704C7F;stroke-width:1.0596;}
	.st98{fill:none;stroke:#1480FF;stroke-width:0.9686;}
	.st99{fill:none;stroke:#876D7F;stroke-width:0.7683;}
	.st100{fill:none;stroke:#1480FF;stroke-width:0.9367;}
	.st101{fill:none;stroke:#1480FF;stroke-width:0.7819;}
	.st102{fill:none;stroke:#00AD17;stroke-width:1.5285;}
	.st103{fill:none;stroke:#00AD17;stroke-width:1.9837;}
	.st104{fill:none;stroke:#0A968B;stroke-width:0.8001;}
	.st105{fill:none;stroke:#0A968B;stroke-width:0.7501;}
	.st106{fill:none;stroke:#704C7F;stroke-width:1.574;}
	.st107{fill:none;stroke:#1480FF;stroke-width:3.9137;}
	.st108{fill:none;stroke:#1480FF;stroke-width:1.2553;}
	.st109{fill:none;stroke:#1480FF;stroke-width:1.6013;}
	.st110{fill:none;stroke:#0A968B;stroke-width:0.7;}
	.st111{fill:none;stroke:#1480FF;stroke-width:3.8637;}
	.st112{fill:none;stroke:#1480FF;stroke-width:2.6118;}
	.st113{fill:none;stroke:#1480FF;stroke-width:2.9942;}
	.st114{fill:none;stroke:#1480FF;stroke-width:0.9413;}
	.st115{fill:none;stroke:#1480FF;stroke-width:0.7364;}
	.st116{fill:none;stroke:#704C7F;stroke-width:1.5239;}
	.st117{fill:none;stroke:#1480FF;stroke-width:4.2096;}
	.st118{fill:none;stroke:#0A968B;stroke-width:2.234;}
	.st119{fill:none;stroke:#876D7F;stroke-width:0.7091;}
	.st120{fill:none;stroke:#1480FF;stroke-width:1.0733;}
	.st121{fill:none;stroke:#1480FF;stroke-width:1.3919;}
	.st122{fill:none;stroke:#876D7F;stroke-width:0.7;}
	.st123{fill:none;stroke:#704C7F;stroke-width:0.8275;}
	.st124{fill:none;stroke:#1480FF;stroke-width:1.0414;}
	.st125{fill:none;stroke:#1480FF;stroke-width:2.9441;}
	.st126{fill:none;stroke:#0A968B;stroke-width:0.7865;}
	.st127{fill:none;stroke:#1480FF;stroke-width:0.9094;}
	.st128{fill:none;stroke:#1480FF;stroke-width:3.1535;}
	.st129{fill:none;stroke:#00AD17;stroke-width:1.5967;}
	.st130{fill:none;stroke:#00AD17;stroke-width:1.533;}
	.st131{fill:none;stroke:#00AD17;stroke-width:2.2477;}
	.st132{fill:#1480FF;stroke:#000000;stroke-width:5;}
	.st133{fill:#00AD17;stroke:#000000;stroke-width:5;}
	.st134{fill:#FACA00;stroke:#000000;stroke-width:5;}
	.st135{fill:#CC1800;stroke:#000000;stroke-width:5;}
	.st136{fill:#FA5A00;stroke:#000000;stroke-width:5;}
</style>
<g id="edges">
	<path class="st0" d="M269.2,207.7c-1.1-23.1,31.8-59.5,55-60.7"/>
	<path class="st1" d="M269.2,207.7c18.4,27.9,4,97.3-23.9,115.7"/>
	<path class="st2" d="M269.2,207.7c-19,49.3-121.4,94.6-170.7,75.6"/>
	<path class="st3" d="M269.2,207.7c35.4-43.8,154.1-56.4,197.8-21.1"/>
	<path class="st4" d="M269.2,207.7c2.6-63.6,101.9-155,165.5-152.4"/>
	<path class="st5" d="M269.2,207.7c27,60.7-23.6,192.4-84.3,219.4"/>
	<path class="st6" d="M269.2,207.7c44.5,11.8,93.5,96.1,81.7,140.6"/>
	<path class="st7" d="M269.2,207.7c-9.1,25.9-61.6,51.3-87.5,42.2"/>
	<path class="st8" d="M269.2,207.7c11.5-49.4,102.8-106.4,152.2-95"/>
	<path class="st9" d="M269.2,207.7C237,194.8,208.1,127.3,221,95.2"/>
	<path class="st10" d="M269.2,207.7c46.6-32.1,164.6-10.3,196.7,36.3"/>
	<path class="st11" d="M269.2,207.7c20.5-20.6,82.1-20.7,102.7-0.2"/>
	<path class="st12" d="M269.2,207.7c1.6,48.9-69.2,124.6-118.1,126.2"/>
	<path class="st13" d="M269.2,207.7c-31.6-33.4-28.9-130.8,4.4-162.4"/>
	<path class="st14" d="M269.2,207.7c19.1-37,103.4-63.9,140.4-44.8"/>
	<path class="st15" d="M269.2,207.7C335,196,451.2,277.2,462.8,343"/>
	<path class="st16" d="M269.2,207.7c30.5,36.1,22.1,136.1-14.1,166.6"/>
	<path class="st17" d="M269.2,207.7c-25.4,14.3-85-2.3-99.3-27.7"/>
	<path class="st18" d="M269.2,207.7c65.1,7.4,151.7,116.1,144.4,181.2"/>
	<path class="st19" d="M269.2,207.7c24.3,8.3,48.2,57.2,39.9,81.5"/>
	<path class="st20" d="M269.2,207.7c-34.4,34.9-138.3,35.5-173.2,1.1"/>
	<path class="st21" d="M324.2,147c19.5,51.1-27.8,156.9-78.9,176.4"/>
	<path class="st22" d="M324.2,147c-17.9,72.4-153.3,154.2-225.7,136.3"/>
	<path class="st23" d="M324.2,147c36.5-20.6,122.2,3.1,142.9,39.6"/>
	<path class="st24" d="M324.2,147c-43.8,35.7-163.1,23.6-198.8-20.2"/>
	<path class="st25" d="M324.2,147c-10.1-18.7,2.7-61.8,21.3-72"/>
	<path class="st26" d="M324.2,147c28.2,83.9-55.4,251.9-139.3,280.1"/>
	<path class="st27" d="M324.2,147c45.6,34.9,61.6,155.7,26.7,201.3"/>
	<path class="st28" d="M324.2,147c-7.9,49.1-93.4,110.8-142.5,102.9"/>
	<path class="st29" d="M324.2,147c-31,10.3-92.9-20.8-103.2-51.8"/>
	<path class="st30" d="M324.2,147c21.6,2.6,50.2,38.9,47.7,60.5"/>
	<path class="st31" d="M324.2,147c2.8,72-101,184.1-173,186.9"/>
	<path class="st32" d="M324.2,147c-30.5-10.2-60.8-71.3-50.5-101.7"/>
	<path class="st33" d="M324.2,147c20.3-13.9,71.5-4.4,85.5,15.9"/>
	<path class="st34" d="M324.2,147c66.9,11.5,150.1,129,138.7,196"/>
	<path class="st35" d="M324.2,147c31.6,59.3-9.8,195.6-69.1,227.3"/>
	<path class="st36" d="M324.2,147c-24.3,37.5-116.8,57.3-154.3,33"/>
	<path class="st37" d="M324.2,147c25.4,31.4,16.4,116.7-15.1,142.1"/>
	<path class="st38" d="M324.2,147c-33.3,58-170.2,95-228.2,61.8"/>
	<path class="st39" d="M245.3,323.4c-37.4,21.3-125.5-2.7-146.8-40.1"/>
	<path class="st40" d="M245.3,323.4c8.7,32.8-27.6,95.1-60.4,103.7"/>
	<path class="st41" d="M245.3,323.4c26.1-16.1,89.5-1.2,105.6,24.9"/>
	<path class="st42" d="M245.3,323.4c-27.4-2-65.6-46.1-63.6-73.5"/>
	<path class="st43" d="M245.3,323.4c-50.5-40.8-65.1-177.7-24.3-228.2"/>
	<path class="st44" d="M245.3,323.4c28.2-60,160.6-107.7,220.6-79.5"/>
	<path class="st45" d="M245.3,323.4c2.1-48.5,78.1-118,126.5-115.9"/>
	<path class="st46" d="M245.3,323.4c-16.7,20.9-73.2,27.3-94.2,10.5"/>
	<path class="st47" d="M245.3,323.4c-11.2,44-94,93.2-137.9,82"/>
	<path class="st48" d="M245.3,323.4c0.8-65,99.4-161.3,164.3-160.5"/>
	<path class="st49" d="M245.3,323.4c47.4-39.6,178-27.8,217.6,19.6"/>
	<path class="st50" d="M245.3,323.4c12.1,8.2,18,38.7,9.8,50.9"/>
	<path class="st51" d="M245.3,323.4c-43.8-13.6-89-99.6-75.4-143.4"/>
	<path class="st52" d="M245.3,323.4c46.7-20.6,147.7,18.7,168.3,65.5"/>
	<path class="st53" d="M245.3,323.4c5.9-19.6,44.2-40.2,63.8-34.3"/>
	<path class="st54" d="M245.3,323.4c30.4,22.3,42.5,101.5,20.2,131.9"/>
	<path class="st2" d="M245.3,323.4c-52.8,6.9-142.4-61.8-149.3-114.6"/>
	<path class="st55" d="M351.2,423.4c-60.7-49.9-76.9-215.7-27-276.4"/>
	<path class="st56" d="M351.2,423.4c-41.2,1.2-104.7-58.8-105.9-100"/>
	<path class="st57" d="M351.2,423.4c-15.1-15-15.3-60-0.3-75.1"/>
	<path class="st58" d="M351.2,423.4c-68.6-0.8-170.4-104.9-169.6-173.5"/>
	<path class="st59" d="M351.2,423.4c6.2-38.4,73.2-86.7,111.6-80.4"/>
	<path class="st60" d="M351.2,423.4c-35.3-18.4-60.6-99-42.1-134.3"/>
	<path class="st61" d="M184.9,427.1c19.6,9.5,34.6,53.1,25.1,72.7"/>
	<path class="st62" d="M184.9,427.1c-6.5-81.3,105.7-213.1,187-219.6"/>
	<path class="st63" d="M184.9,427.1c-25.4-11.9-45.6-67.8-33.7-93.2"/>
	<path class="st64" d="M184.9,427.1c-19.8,11.2-66.4-1.9-77.5-21.7"/>
	<path class="st65" d="M350.9,348.3c-9.1-55.6,60.6-152.5,116.1-161.6"/>
	<path class="st66" d="M350.9,348.3c-17.4,49-117,96.3-166,78.8"/>
	<path class="st67" d="M350.9,348.3c2.1-43.9,71.1-106.5,115-104.3"/>
	<path class="st68" d="M350.9,348.3c-24-32.3-11.4-116.8,20.9-140.8"/>
	<path class="st69" d="M350.9,348.3c-42.8,37.1-162.7,28.5-199.8-14.3"/>
	<path class="st70" d="M350.9,348.3c-25.3-48.8,9.9-160,58.7-185.4"/>
	<path class="st71" d="M350.9,348.3c21.3-23.5,88.5-26.6,112-5.3"/>
	<path class="st72" d="M350.9,348.3c-69.9,2.6-178.5-98.4-181-168.3"/>
	<path class="st73" d="M350.9,348.3c20.7-4.4,58.3,19.9,62.7,40.6"/>
	<path class="st74" d="M350.9,348.3c4.3,38.5-46.9,102.7-85.4,107"/>
	<path class="st75" d="M181.6,249.9c-9.9,23.3-59.9,43.4-83.2,33.4"/>
	<path class="st76" d="M181.6,249.9c-35.9-13.4-69.6-87.2-56.2-123.1"/>
	<path class="st77" d="M181.6,249.9c36.1,34.8,38,141.2,3.2,177.2"/>
	<path class="st78" d="M181.6,249.9c53.5-14.2,155.1,44.9,169.2,98.4"/>
	<path class="st79" d="M181.6,249.9c-23.1-38.8,0.5-131.6,39.3-154.7"/>
	<path class="st80" d="M181.6,249.9c55.7-58,226.2-61.6,284.3-5.9"/>
	<path class="st81" d="M181.6,249.9c29.6-46.5,143.7-71.9,190.2-42.4"/>
	<path class="st82" d="M181.6,249.9c10.7,22.9-7.6,73.4-30.5,84.1"/>
	<path class="st83" d="M181.6,249.9c-22.5-59.3,32.7-182.1,92-204.6"/>
	<path class="st84" d="M181.6,249.9c28.2-63,165-115.2,228-87"/>
	<path class="st85" d="M181.6,249.9c74.9-37.6,243.6,18.2,281.2,93.1"/>
	<path class="st86" d="M181.6,249.9c39.6,10.2,83.6,84.8,73.5,124.4"/>
	<path class="st87" d="M181.6,249.9c-16.3-11.6-23.4-53.5-11.8-69.9"/>
	<path class="st88" d="M181.6,249.9c33.3-17.6,109.8,5.9,127.4,39.3"/>
	<path class="st89" d="M181.6,249.9c-25.4,8.9-76.8-15.8-85.7-41.1"/>
	<path class="st90" d="M221,95.2c13.1,62.1-60.4,175-122.5,188.1"/>
	<path class="st91" d="M221,95.2c52.6-7.7,143.2,59.7,150.9,112.3"/>
	<path class="st92" d="M221,95.2c0.5-20.5,32.1-50.5,52.6-49.9"/>
	<path class="st93" d="M221,95.2c51.3-24.2,164.5,16.5,188.6,67.7"/>
	<path class="st94" d="M371.8,207.5c14.9-23.2,72-35.7,95.2-20.9"/>
	<path class="st95" d="M371.8,207.5c26.1-11.5,82.5,10.3,94.1,36.5"/>
	<path class="st96" d="M107.3,405.4c-5.5-23,20.7-65.9,43.8-71.5"/>
	<path class="st70" d="M409.6,162.9c1.4,16.5-21.3,43.2-37.8,44.6"/>
	<path class="st97" d="M462.8,343c-38.8,72.4-205.6,122.9-278,84.1"/>
	<path class="st98" d="M462.8,343c-19.2-20.4-17.4-79.8,3.1-99"/>
	<path class="st23" d="M462.8,343c-45.3-8.9-99.9-90.2-91-135.5"/>
	<path class="st99" d="M462.8,343c-3.9-30.8,36.4-82.8,67.1-86.7"/>
	<path class="st100" d="M462.8,343c-46.7-25.4-78.6-133.4-53.2-180.1"/>
	<path class="st101" d="M462.8,343c-0.7,19-30.3,46.6-49.3,45.9"/>
	<path class="st57" d="M255.1,374.3c14-24.4,71.4-40,95.8-26"/>
	<path class="st102" d="M169.8,180c6.4,34.9-36.5,96.9-71.4,103.3"/>
	<path class="st103" d="M169.8,180c-6.7-27.2,23.9-78.1,51.1-84.9"/>
	<path class="st104" d="M169.8,180c45.9-34.9,167.1-18.4,202,27.5"/>
	<path class="st105" d="M169.8,180c44.5-51.4,188.4-61.6,239.8-17.1"/>
	<path class="st48" d="M309.1,289.1c11.1-52.1,105.9-113.6,158-102.5"/>
	<path class="st106" d="M309.1,289.1c2.8,52.4-71.8,135.2-124.2,138"/>
	<path class="st107" d="M309.1,289.1c20.2,3.5,45.3,38.9,41.8,59.1"/>
	<path class="st108" d="M309.1,289.1c22.3-40.4,116.4-67.5,156.8-45.2"/>
	<path class="st109" d="M309.1,289.1c-3.8-28.9,33.9-77.9,62.8-81.6"/>
	<path class="st62" d="M309.1,289.1c-22.6,40.5-117.4,67.4-157.9,44.8"/>
	<path class="st74" d="M309.1,289.1C292,352.7,170.9,422.5,107.3,405.4"/>
	<path class="st80" d="M309.1,289.1c-55.9-41.7-77.1-188-35.5-243.9"/>
	<path class="st35" d="M309.1,289.1c-5.1-45.4,55.2-121.1,100.5-126.2"/>
	<path class="st37" d="M309.1,289.1c41.5-20,133.8,12.3,153.8,53.8"/>
	<path class="st110" d="M309.1,289.1c-49.7,6-133.2-59.5-139.2-109.1"/>
	<path class="st3" d="M309.1,289.1c40.8-1,103.5,58.9,104.5,99.7"/>
	<path class="st111" d="M392.1,277.3c-38.5,10.7-112.2-31.1-122.9-69.6"/>
	<path class="st112" d="M392.1,277.3c-39.6-12.5-80.4-90.6-67.9-130.3"/>
	<path class="st113" d="M392.1,277.3c-20.1,38.6-108.2,66.3-146.8,46.1"/>
	<path class="st114" d="M392.1,277.3c21,37.4-3.5,125.1-40.9,146.1"/>
	<path class="st115" d="M392.1,277.3c-3.1-33.1,41.8-87.5,74.9-90.7"/>
	<path class="st116" d="M392.1,277.3c-11.5,71.4-135.8,161.3-207.2,149.8"/>
	<path class="st117" d="M392.1,277.3c6,22.4-18.8,65-41.2,71"/>
	<path class="st118" d="M392.1,277.3c-47.6,36.6-173.8,20.2-210.4-27.4"/>
	<path class="st119" d="M392.1,277.3c38.8-20.9,128.3,5.9,149.2,44.6"/>
	<path class="st110" d="M392.1,277.3C321.4,275.1,218.8,165.8,221,95.2"/>
	<path class="st120" d="M392.1,277.3c8.1-21.4,52.4-41.4,73.8-33.3"/>
	<path class="st121" d="M392.1,277.3c-18-9.9-30.2-51.8-20.2-69.8"/>
	<path class="st122" d="M392.1,277.3c23.4-31.8,106.1-44.4,137.9-21"/>
	<path class="st123" d="M392.1,277.3c-36.9,59.5-181.4,93.5-241,56.6"/>
	<path class="st124" d="M392.1,277.3c-19.4-26.4-8.9-95,17.5-114.4"/>
	<path class="st125" d="M392.1,277.3c27.3-1,69.8,38.4,70.8,65.7"/>
	<path class="st52" d="M392.1,277.3c-8,46.8-90.2,105-137,97"/>
	<path class="st126" d="M392.1,277.3c-63.9,25-197.2-33.4-222.2-97.3"/>
	<path class="st127" d="M392.1,277.3c26.6,18,39.5,85,21.5,111.6"/>
	<path class="st128" d="M392.1,277.3c-14.2,19-64,26.1-83,11.9"/>
	<path class="st129" d="M96,208.8c15.4,14.4,16.9,59.1,2.5,74.5"/>
	<path class="st130" d="M96,208.8c2.3-47.7,77.3-115.9,125-113.6"/>
	<path class="st131" d="M96,208.8c9-20.5,53.4-37.8,73.9-28.8"/>
</g>
<g id="nodes">
	<circle class="st132" cx="269.2" cy="207.7" r="31"/>
	<circle class="st132" cx="324.2" cy="147" r="19.6"/>
	<circle class="st132" cx="245.3" cy="323.4" r="15.7"/>
	<circle class="st133" cx="98.5" cy="283.3" r="10"/>
	<circle class="st132" cx="467" cy="186.6" r="10.8"/>
	<circle class="st134" cx="434.7" cy="55.3" r="10"/>
	<circle class="st135" cx="184.9" cy="427.1" r="20.1"/>
	<circle class="st132" cx="350.9" cy="348.3" r="17.4"/>
	<circle class="st133" cx="181.6" cy="249.9" r="19.3"/>
	<circle class="st134" cx="421.4" cy="112.7" r="10"/>
	<circle class="st133" cx="221" cy="95.2" r="17"/>
	<circle class="st132" cx="465.9" cy="244" r="14"/>
	<circle class="st132" cx="371.8" cy="207.5" r="13.6"/>
	<circle class="st135" cx="151.1" cy="333.9" r="18.1"/>
	<circle class="st133" cx="273.6" cy="45.3" r="15.5"/>
	<circle class="st132" cx="409.6" cy="162.9" r="10.5"/>
	<circle class="st132" cx="462.8" cy="343" r="17"/>
	<circle class="st132" cx="255.1" cy="374.3" r="14"/>
	<circle class="st133" cx="169.8" cy="180" r="15.8"/>
	<circle class="st132" cx="413.6" cy="388.9" r="12.2"/>
	<circle class="st132" cx="309.1" cy="289.1" r="15.7"/>
	<circle class="st133" cx="96" cy="208.8" r="10"/>
	<circle class="st133" cx="125.4" cy="126.8" r="10"/>
	<circle class="st134" cx="345.5" cy="75" r="10"/>
	<circle class="st135" cx="107.3" cy="405.4" r="13.5"/>
	<circle class="st135" cx="265.4" cy="455.3" r="10.5"/>
	<circle class="st132" cx="351.2" cy="423.4" r="21.3"/>
	<circle class="st135" cx="210" cy="499.8" r="10"/>
	<circle class="st136" cx="530" cy="256.2" r="11.6"/>
	<circle class="st132" cx="392.1" cy="277.3" r="29.4"/>
	<circle class="st136" cx="541.3" cy="321.9" r="10"/>
</g>
</svg>
